<?xml version="1.0" standalone="no"?>
<svg xmlns:xlink="http://www.w3.org/1999/xlink" id="wave" style="transform:rotate(0deg); transition: 0.3s" viewBox="0 0 1440 490" version="1.1" xmlns="http://www.w3.org/2000/svg"><defs><linearGradient id="sw-gradient-0" x1="0" x2="0" y1="1" y2="0"><stop stop-color="rgba(172, 33, 148, 1)" offset="0%"/><stop stop-color="rgba(254, 180, 49, 1)" offset="100%"/></linearGradient></defs><path style="transform:translate(0, 0px); opacity:1" fill="url(#sw-gradient-0)" d="M0,245L24,236.8C48,229,96,212,144,228.7C192,245,240,294,288,294C336,294,384,245,432,204.2C480,163,528,131,576,155.2C624,180,672,261,720,285.8C768,310,816,278,864,253.2C912,229,960,212,1008,212.3C1056,212,1104,229,1152,236.8C1200,245,1248,245,1296,261.3C1344,278,1392,310,1440,310.3C1488,310,1536,278,1584,277.7C1632,278,1680,310,1728,343C1776,376,1824,408,1872,367.5C1920,327,1968,212,2016,204.2C2064,196,2112,294,2160,351.2C2208,408,2256,425,2304,359.3C2352,294,2400,147,2448,89.8C2496,33,2544,65,2592,130.7C2640,196,2688,294,2736,277.7C2784,261,2832,131,2880,138.8C2928,147,2976,294,3024,367.5C3072,441,3120,441,3168,383.8C3216,327,3264,212,3312,147C3360,82,3408,65,3432,57.2L3456,49L3456,490L3432,490C3408,490,3360,490,3312,490C3264,490,3216,490,3168,490C3120,490,3072,490,3024,490C2976,490,2928,490,2880,490C2832,490,2784,490,2736,490C2688,490,2640,490,2592,490C2544,490,2496,490,2448,490C2400,490,2352,490,2304,490C2256,490,2208,490,2160,490C2112,490,2064,490,2016,490C1968,490,1920,490,1872,490C1824,490,1776,490,1728,490C1680,490,1632,490,1584,490C1536,490,1488,490,1440,490C1392,490,1344,490,1296,490C1248,490,1200,490,1152,490C1104,490,1056,490,1008,490C960,490,912,490,864,490C816,490,768,490,720,490C672,490,624,490,576,490C528,490,480,490,432,490C384,490,336,490,288,490C240,490,192,490,144,490C96,490,48,490,24,490L0,490Z"/><defs><linearGradient id="sw-gradient-1" x1="0" x2="0" y1="1" y2="0"><stop stop-color="rgba(172, 33, 148, 1)" offset="0%"/><stop stop-color="rgba(255, 179, 11, 1)" offset="100%"/></linearGradient></defs><path style="transform:translate(0, 50px); opacity:0.9" fill="url(#sw-gradient-1)" d="M0,294L24,285.8C48,278,96,261,144,228.7C192,196,240,147,288,106.2C336,65,384,33,432,81.7C480,131,528,261,576,269.5C624,278,672,163,720,155.2C768,147,816,245,864,310.3C912,376,960,408,1008,424.7C1056,441,1104,441,1152,432.8C1200,425,1248,408,1296,408.3C1344,408,1392,425,1440,375.7C1488,327,1536,212,1584,147C1632,82,1680,65,1728,106.2C1776,147,1824,245,1872,277.7C1920,310,1968,278,2016,253.2C2064,229,2112,212,2160,179.7C2208,147,2256,98,2304,65.3C2352,33,2400,16,2448,24.5C2496,33,2544,65,2592,130.7C2640,196,2688,294,2736,310.3C2784,327,2832,261,2880,228.7C2928,196,2976,196,3024,163.3C3072,131,3120,65,3168,81.7C3216,98,3264,196,3312,196C3360,196,3408,98,3432,49L3456,0L3456,490L3432,490C3408,490,3360,490,3312,490C3264,490,3216,490,3168,490C3120,490,3072,490,3024,490C2976,490,2928,490,2880,490C2832,490,2784,490,2736,490C2688,490,2640,490,2592,490C2544,490,2496,490,2448,490C2400,490,2352,490,2304,490C2256,490,2208,490,2160,490C2112,490,2064,490,2016,490C1968,490,1920,490,1872,490C1824,490,1776,490,1728,490C1680,490,1632,490,1584,490C1536,490,1488,490,1440,490C1392,490,1344,490,1296,490C1248,490,1200,490,1152,490C1104,490,1056,490,1008,490C960,490,912,490,864,490C816,490,768,490,720,490C672,490,624,490,576,490C528,490,480,490,432,490C384,490,336,490,288,490C240,490,192,490,144,490C96,490,48,490,24,490L0,490Z"/><defs><linearGradient id="sw-gradient-2" x1="0" x2="0" y1="1" y2="0"><stop stop-color="rgba(172, 33, 148, 1)" offset="0%"/><stop stop-color="rgba(255, 179, 11, 1)" offset="100%"/></linearGradient></defs><path style="transform:translate(0, 100px); opacity:0.8" fill="url(#sw-gradient-2)" d="M0,196L24,179.7C48,163,96,131,144,138.8C192,147,240,196,288,220.5C336,245,384,245,432,269.5C480,294,528,343,576,326.7C624,310,672,229,720,196C768,163,816,180,864,220.5C912,261,960,327,1008,343C1056,359,1104,327,1152,269.5C1200,212,1248,131,1296,89.8C1344,49,1392,49,1440,57.2C1488,65,1536,82,1584,106.2C1632,131,1680,163,1728,179.7C1776,196,1824,196,1872,171.5C1920,147,1968,98,2016,89.8C2064,82,2112,114,2160,171.5C2208,229,2256,310,2304,326.7C2352,343,2400,294,2448,269.5C2496,245,2544,245,2592,204.2C2640,163,2688,82,2736,98C2784,114,2832,229,2880,261.3C2928,294,2976,245,3024,245C3072,245,3120,294,3168,294C3216,294,3264,245,3312,196C3360,147,3408,98,3432,73.5L3456,49L3456,490L3432,490C3408,490,3360,490,3312,490C3264,490,3216,490,3168,490C3120,490,3072,490,3024,490C2976,490,2928,490,2880,490C2832,490,2784,490,2736,490C2688,490,2640,490,2592,490C2544,490,2496,490,2448,490C2400,490,2352,490,2304,490C2256,490,2208,490,2160,490C2112,490,2064,490,2016,490C1968,490,1920,490,1872,490C1824,490,1776,490,1728,490C1680,490,1632,490,1584,490C1536,490,1488,490,1440,490C1392,490,1344,490,1296,490C1248,490,1200,490,1152,490C1104,490,1056,490,1008,490C960,490,912,490,864,490C816,490,768,490,720,490C672,490,624,490,576,490C528,490,480,490,432,490C384,490,336,490,288,490C240,490,192,490,144,490C96,490,48,490,24,490L0,490Z"/></svg>